<svg xmlns="http://www.w3.org/2000/svg" width="57" height="57"><path d="M57 47c0 5.5-4.5 10-10 10H10C4.5 57 0 52.5 0 47V10C0 4.5 4.5 0 10 0h37c5.5 0 10 4.5 10 10v37z" fill="#010101"/><path fill="#FFF" d="M34.746 28.533L24.78 38.5v-20"/><path d="M42.934 36.725c-2.86 5.01-8.252 8.387-14.434 8.387-9.174 0-16.61-7.437-16.61-16.61s7.436-16.613 16.61-16.613c6.186 0 11.582 3.382 14.44 8.398l2.463-2.48C41.857 12.215 35.613 8.5 28.5 8.5c-11.046 0-20 8.954-20 20s8.954 20 20 20c7.113 0 13.356-3.714 16.902-9.307l-2.468-2.468z" fill="#D02728"/></svg>