<svg xmlns="http://www.w3.org/2000/svg" width="116.3" height="143"><path style="fill:#FFF" d="M97.2 76C97 58 112 49.2 112.7 48.8c-8.5-12.3-21.6-14-26.2-14.2-11-1.2-21.7 6.6-27.3 6.6-5.7 0-14.4-6.5-23.7-6.3C23.4 35.1 12.2 42 6 52.8c-12.7 22-3.2 54.3 8.9 72.1 6.1 8.7 13.2 18.4 22.5 18.1 9.1-.4 12.5-5.8 23.5-5.8 10.9 0 14.1 5.8 23.6 5.6 9.8-.2 15.9-8.7 21.8-17.5 7-10 9.9-19.8 10-20.3-.2-.1-18.9-7.3-19.1-29z"/><path style="fill:#FFF" d="M79.2 22.9c4.9-6.1 8.3-14.5 7.3-22.9-7.1.3-16 4.9-21.1 10.9C61 16.2 56.9 24.8 58 33c7.9.6 16.1-4 21.2-10.1z"/></svg>