<svg id="Layer_2" xmlns="http://www.w3.org/2000/svg" width="415" height="174" viewBox="-98 310 415 174" enable-background="new -98 310 415 174"><style>.st0{opacity:0.75;filter:url(#glow);} .st1{fill:#D02317;} .st2{fill:#FFFFFF;}</style><filter id="glow"><feGaussianBlur result="coloredBlur" stdDeviation="2.5"/><feMerge><feMergeNode in="coloredBlur"/><feMergeNode in="SourceGraphic"/></feMerge></filter><g class="st0"><path d="M-89.8 421.7l14.4-100.9h1.6l41 82.8 40.6-82.8h1.6L24 421.7h-9.9l-10-72.1-35.7 72.1h-2.6L-70.3 349l-9.9 72.7h-9.6zm128.4-74.6h9.8V358c2.9-4.3 6-7.5 9.3-9.6 3.2-2.1 6.6-3.2 10.1-3.2 2.7 0 5.5.8 8.5 2.5l-5 8.1c-2-.9-3.7-1.3-5.1-1.3-3.2 0-6.3 1.3-9.3 3.9-3 2.6-5.2 6.7-6.8 12.2-1.2 4.3-1.8 12.8-1.8 25.8v25.2h-9.8v-74.5zm43 74.6L96 320.9h1.6l40.9 82.8 40.5-82.8h1.6l14.5 100.9h-9.9l-10-72.1-35.6 72.1H137l-36-72.7-9.9 72.7h-9.5zM-90.4 445.4h3.8v5.1c1.3-1.9 2.7-3.3 4.1-4.2 1.9-1.2 4-1.8 6.1-1.8 1.4 0 2.8.3 4.1.8 1.3.6 2.4 1.3 3.2 2.3.8.9 1.5 2.3 2.1 4 1.3-2.3 2.9-4.1 4.8-5.3 1.9-1.2 4-1.8 6.2-1.8 2.1 0 3.9.5 5.5 1.6 1.6 1 2.7 2.5 3.5 4.4.8 1.9 1.1 4.7 1.1 8.4v16.3h-3.9v-16.3c0-3.2-.2-5.4-.7-6.6-.5-1.2-1.2-2.2-2.3-2.9-1.1-.7-2.4-1.1-3.9-1.1-1.9 0-3.6.5-5.1 1.6-1.5 1.1-2.7 2.6-3.4 4.4-.7 1.8-1.1 4.9-1.1 9.1v11.7h-3.8v-15.3c0-3.6-.2-6-.7-7.3-.4-1.3-1.2-2.3-2.3-3.1-1.1-.8-2.4-1.2-4-1.2-1.8 0-3.4.5-5 1.6-1.5 1.1-2.7 2.5-3.4 4.3s-1.1 4.6-1.1 8.3V475h-3.8v-29.6zm80.5 19.9l3.2 1.7c-1.1 2.1-2.3 3.8-3.7 5-1.4 1.3-3 2.3-4.7 2.9-1.7.7-3.7 1-5.9 1-4.9 0-8.7-1.6-11.4-4.8-2.7-3.2-4.1-6.8-4.1-10.8 0-3.8 1.2-7.1 3.5-10.1 2.9-3.8 6.9-5.6 11.8-5.6 5.1 0 9.1 1.9 12.2 5.8 2.2 2.7 3.3 6.1 3.3 10.2h-26.8c.1 3.5 1.2 6.3 3.3 8.5 2.1 2.2 4.8 3.3 7.9 3.3 1.5 0 3-.3 4.4-.8 1.4-.5 2.7-1.2 3.7-2.1 1.1-.8 2.2-2.2 3.3-4.2zm0-8c-.5-2-1.3-3.7-2.2-4.9-1-1.2-2.3-2.2-3.9-3-1.6-.7-3.3-1.1-5.1-1.1-2.9 0-5.4.9-7.5 2.8-1.5 1.4-2.7 3.4-3.5 6.2h22.2zm44-23.4v41.3h-3.8v-5.1c-1.6 2-3.4 3.4-5.4 4.4-2 1-4.2 1.5-6.6 1.5-4.2 0-7.8-1.5-10.8-4.6-3-3.1-4.5-6.8-4.5-11.2 0-4.3 1.5-8 4.5-11s6.6-4.6 10.9-4.6c2.4 0 4.7.5 6.6 1.6 2 1 3.7 2.6 5.2 4.7v-17h3.9zm-15.3 14.4c-2.1 0-4.1.5-5.9 1.6-1.8 1-3.2 2.5-4.3 4.4-1.1 1.9-1.6 3.9-1.6 6s.5 4.1 1.6 6c1.1 1.9 2.5 3.4 4.3 4.5 1.8 1.1 3.8 1.6 5.8 1.6 2.1 0 4.1-.5 6-1.6 1.9-1.1 3.3-2.5 4.3-4.3 1-1.8 1.5-3.8 1.5-6.1 0-3.4-1.1-6.3-3.4-8.6-2.2-2.3-5-3.5-8.3-3.5zM47 433.1c.9 0 1.6.3 2.2.9.6.6.9 1.4.9 2.2 0 .9-.3 1.6-.9 2.2-.6.6-1.4.9-2.2.9-.9 0-1.6-.3-2.2-.9-.6-.6-.9-1.4-.9-2.2 0-.9.3-1.6.9-2.2.6-.6 1.3-.9 2.2-.9zm-1.9 12.3h3.8v29.8h-3.8v-29.8zm44.3 0v29.8h-3.8v-5.1c-1.6 2-3.4 3.4-5.4 4.4-2 1-4.2 1.5-6.6 1.5-4.2 0-7.8-1.5-10.8-4.6-3-3.1-4.5-6.8-4.5-11.2 0-4.3 1.5-8 4.5-11s6.6-4.6 10.9-4.6c2.4 0 4.7.5 6.6 1.6 2 1 3.7 2.6 5.2 4.7v-5.5h3.9zm-15.3 2.9c-2.1 0-4.1.5-5.9 1.6-1.8 1-3.2 2.5-4.3 4.4-1.1 1.9-1.6 3.9-1.6 6s.5 4.1 1.6 6c1.1 1.9 2.5 3.4 4.3 4.5 1.8 1.1 3.8 1.6 5.8 1.6 2.1 0 4.1-.5 6-1.6 1.9-1.1 3.3-2.5 4.3-4.3 1-1.8 1.5-3.8 1.5-6.1 0-3.4-1.1-6.3-3.4-8.6-2.2-2.3-5-3.5-8.3-3.5zm74.1 3.3l-3 1.9c-2.6-3.5-6.2-5.2-10.8-5.2-3.6 0-6.6 1.2-9 3.5-2.4 2.3-3.6 5.2-3.6 8.5 0 2.2.6 4.2 1.7 6.1 1.1 1.9 2.6 3.4 4.5 4.5s4.1 1.6 6.5 1.6c4.4 0 8-1.7 10.7-5.2l3 2c-1.4 2.1-3.3 3.8-5.7 5-2.4 1.2-5.1 1.8-8.2 1.8-4.7 0-8.6-1.5-11.7-4.5-3.1-3-4.7-6.6-4.7-10.9 0-2.9.7-5.6 2.2-8 1.5-2.5 3.4-4.4 6-5.8 2.5-1.4 5.4-2.1 8.5-2.1 2 0 3.9.3 5.7.9 1.8.6 3.4 1.4 4.7 2.4 1.2.8 2.3 2 3.2 3.5zm35.3 13.7l3.2 1.7c-1.1 2.1-2.3 3.8-3.7 5-1.4 1.3-3 2.3-4.7 2.9-1.7.7-3.7 1-5.9 1-4.9 0-8.7-1.6-11.4-4.8-2.7-3.2-4.1-6.8-4.1-10.8 0-3.8 1.2-7.1 3.5-10.1 2.9-3.8 6.9-5.6 11.8-5.6 5.1 0 9.1 1.9 12.2 5.8 2.2 2.7 3.3 6.1 3.3 10.2h-26.8c.1 3.5 1.2 6.3 3.3 8.5 2.1 2.2 4.8 3.3 7.9 3.3 1.5 0 3-.3 4.4-.8 1.4-.5 2.7-1.2 3.7-2.1 1.1-.8 2.1-2.2 3.3-4.2zm0-8c-.5-2-1.3-3.7-2.2-4.9-1-1.2-2.3-2.2-3.9-3-1.6-.7-3.3-1.1-5.1-1.1-2.9 0-5.4.9-7.5 2.8-1.5 1.4-2.7 3.4-3.5 6.2h22.2zm14.3-11.9h3.8v5.3c1.5-2 3.2-3.6 5.1-4.6 1.9-1 3.9-1.5 6.1-1.5 2.2 0 4.2.6 5.9 1.7 1.7 1.1 3 2.7 3.8 4.6.8 1.9 1.2 4.9 1.2 9v15.3h-3.8V461c0-3.4-.1-5.7-.4-6.9-.4-2-1.3-3.5-2.5-4.5-1.3-1-2.9-1.5-4.9-1.5-2.3 0-4.4.8-6.2 2.3-1.8 1.5-3 3.4-3.6 5.7-.4 1.5-.5 4.2-.5 8.1v10.9H198v-29.7zm40.5-11.1h3.8v11.1h6.1v3.3h-6.1v26.5h-3.8v-26.5h-5.2v-3.3h5.2v-11.1zm43.5 31l3.2 1.7c-1.1 2.1-2.3 3.7-3.7 5-1.4 1.3-2.9 2.2-4.7 2.9-1.7.7-3.7 1-5.9 1-4.8 0-8.6-1.6-11.4-4.8-2.7-3.2-4.1-6.8-4.1-10.8 0-3.8 1.2-7.1 3.5-10.1 2.9-3.7 6.9-5.6 11.8-5.6 5.1 0 9.1 1.9 12.1 5.8 2.2 2.7 3.2 6.1 3.3 10.2h-26.7c.1 3.4 1.2 6.3 3.3 8.5 2.1 2.2 4.8 3.3 7.9 3.3 1.5 0 3-.3 4.4-.8 1.4-.5 2.6-1.2 3.7-2.1 1-.9 2.1-2.3 3.3-4.2zm0-8c-.5-2-1.3-3.7-2.2-4.9-1-1.2-2.3-2.2-3.9-2.9-1.6-.7-3.3-1.1-5.1-1.1-2.9 0-5.4.9-7.5 2.8-1.5 1.4-2.7 3.4-3.5 6.1h22.2zm12.7-11.9h3.9v4.4c1.2-1.7 2.4-3 3.7-3.8 1.3-.8 2.6-1.3 4.1-1.3 1.1 0 2.2.3 3.4 1l-2 3.2c-.8-.3-1.5-.5-2-.5-1.3 0-2.5.5-3.7 1.6-1.2 1.1-2.1 2.7-2.7 4.9-.5 1.7-.7 5.1-.7 10.3v10.1h-3.9v-29.9zM280.6 371l-26.5 26.5v-53.1z"/><path d="M302.3 392.8c-7.6 13.3-21.9 22.3-38.3 22.3-24.4 0-44.1-19.7-44.1-44.1s19.7-44.1 44.1-44.1c16.4 0 30.8 9 38.3 22.3l6.5-6.6c-9.4-14.9-26-24.7-44.9-24.7-29.3 0-53.1 23.8-53.1 53.1s23.8 53.1 53.1 53.1c18.9 0 35.5-9.9 44.9-24.7l-6.5-6.6z"/></g><path class="st1" d="M-89.8 421.7l14.4-100.9h1.6l41 82.8 40.6-82.8h1.6L24 421.7h-9.9l-10-72.1-35.7 72.1h-2.6L-70.3 349l-9.9 72.7h-9.6zm128.4-74.6h9.8V358c2.9-4.3 6-7.5 9.3-9.6 3.2-2.1 6.6-3.2 10.1-3.2 2.7 0 5.5.8 8.5 2.5l-5 8.1c-2-.9-3.7-1.3-5.1-1.3-3.2 0-6.3 1.3-9.3 3.9-3 2.6-5.2 6.7-6.8 12.2-1.2 4.3-1.8 12.8-1.8 25.8v25.2h-9.8v-74.5zm43 74.6L96 320.9h1.6l40.9 82.8 40.5-82.8h1.6l14.5 100.9h-9.9l-10-72.1-35.6 72.1H137l-36-72.7-9.9 72.7h-9.5z"/><path id="XMLID_7_" class="st2" d="M-90.4 445.4h3.8v5.1c1.3-1.9 2.7-3.3 4.1-4.2 1.9-1.2 4-1.8 6.1-1.8 1.4 0 2.8.3 4.1.8 1.3.6 2.4 1.3 3.2 2.3.8.9 1.5 2.3 2.1 4 1.3-2.3 2.9-4.1 4.8-5.3 1.9-1.2 4-1.8 6.2-1.8 2.1 0 3.9.5 5.5 1.6 1.6 1 2.7 2.5 3.5 4.4.8 1.9 1.1 4.7 1.1 8.4v16.3h-3.9v-16.3c0-3.2-.2-5.4-.7-6.6-.5-1.2-1.2-2.2-2.3-2.9-1.1-.7-2.4-1.1-3.9-1.1-1.9 0-3.6.5-5.1 1.6-1.5 1.1-2.7 2.6-3.4 4.4-.7 1.8-1.1 4.9-1.1 9.1v11.7h-3.8v-15.3c0-3.6-.2-6-.7-7.3-.4-1.3-1.2-2.3-2.3-3.1-1.1-.8-2.4-1.2-4-1.2-1.8 0-3.4.5-5 1.6-1.5 1.1-2.7 2.5-3.4 4.3s-1.1 4.6-1.1 8.3V475h-3.8v-29.6zm80.5 19.9l3.2 1.7c-1.1 2.1-2.3 3.8-3.7 5-1.4 1.3-3 2.3-4.7 2.9-1.7.7-3.7 1-5.9 1-4.9 0-8.7-1.6-11.4-4.8-2.7-3.2-4.1-6.8-4.1-10.8 0-3.8 1.2-7.1 3.5-10.1 2.9-3.8 6.9-5.6 11.8-5.6 5.1 0 9.1 1.9 12.2 5.8 2.2 2.7 3.3 6.1 3.3 10.2h-26.8c.1 3.5 1.2 6.3 3.3 8.5 2.1 2.2 4.8 3.3 7.9 3.3 1.5 0 3-.3 4.4-.8 1.4-.5 2.7-1.2 3.7-2.1 1.1-.8 2.2-2.2 3.3-4.2zm0-8c-.5-2-1.3-3.7-2.2-4.9-1-1.2-2.3-2.2-3.9-3-1.6-.7-3.3-1.1-5.1-1.1-2.9 0-5.4.9-7.5 2.8-1.5 1.4-2.7 3.4-3.5 6.2h22.2zm44-23.4v41.3h-3.8v-5.1c-1.6 2-3.4 3.4-5.4 4.4-2 1-4.2 1.5-6.6 1.5-4.2 0-7.8-1.5-10.8-4.6-3-3.1-4.5-6.8-4.5-11.2 0-4.3 1.5-8 4.5-11s6.6-4.6 10.9-4.6c2.4 0 4.7.5 6.6 1.6 2 1 3.7 2.6 5.2 4.7v-17h3.9zm-15.3 14.4c-2.1 0-4.1.5-5.9 1.6-1.8 1-3.2 2.5-4.3 4.4-1.1 1.9-1.6 3.9-1.6 6s.5 4.1 1.6 6c1.1 1.9 2.5 3.4 4.3 4.5 1.8 1.1 3.8 1.6 5.8 1.6 2.1 0 4.1-.5 6-1.6 1.9-1.1 3.3-2.5 4.3-4.3 1-1.8 1.5-3.8 1.5-6.1 0-3.4-1.1-6.3-3.4-8.6-2.2-2.3-5-3.5-8.3-3.5zM47 433.1c.9 0 1.6.3 2.2.9.6.6.9 1.4.9 2.2 0 .9-.3 1.6-.9 2.2-.6.6-1.4.9-2.2.9-.9 0-1.6-.3-2.2-.9-.6-.6-.9-1.4-.9-2.2 0-.9.3-1.6.9-2.2.6-.6 1.3-.9 2.2-.9zm-1.9 12.3h3.8v29.8h-3.8v-29.8zm44.3 0v29.8h-3.8v-5.1c-1.6 2-3.4 3.4-5.4 4.4-2 1-4.2 1.5-6.6 1.5-4.2 0-7.8-1.5-10.8-4.6-3-3.1-4.5-6.8-4.5-11.2 0-4.3 1.5-8 4.5-11s6.6-4.6 10.9-4.6c2.4 0 4.7.5 6.6 1.6 2 1 3.7 2.6 5.2 4.7v-5.5h3.9zm-15.3 2.9c-2.1 0-4.1.5-5.9 1.6-1.8 1-3.2 2.5-4.3 4.4-1.1 1.9-1.6 3.9-1.6 6s.5 4.1 1.6 6c1.1 1.9 2.5 3.4 4.3 4.5 1.8 1.1 3.8 1.6 5.8 1.6 2.1 0 4.1-.5 6-1.6 1.9-1.1 3.3-2.5 4.3-4.3 1-1.8 1.5-3.8 1.5-6.1 0-3.4-1.1-6.3-3.4-8.6-2.2-2.3-5-3.5-8.3-3.5zm74.1 3.3l-3 1.9c-2.6-3.5-6.2-5.2-10.8-5.2-3.6 0-6.6 1.2-9 3.5-2.4 2.3-3.6 5.2-3.6 8.5 0 2.2.6 4.2 1.7 6.1 1.1 1.9 2.6 3.4 4.5 4.5s4.1 1.6 6.5 1.6c4.4 0 8-1.7 10.7-5.2l3 2c-1.4 2.1-3.3 3.8-5.7 5-2.4 1.2-5.1 1.8-8.2 1.8-4.7 0-8.6-1.5-11.7-4.5-3.1-3-4.7-6.6-4.7-10.9 0-2.9.7-5.6 2.2-8 1.5-2.5 3.4-4.4 6-5.8 2.5-1.4 5.4-2.1 8.5-2.1 2 0 3.9.3 5.7.9 1.8.6 3.4 1.4 4.7 2.4 1.2.8 2.3 2 3.2 3.5zm35.3 13.7l3.2 1.7c-1.1 2.1-2.3 3.8-3.7 5-1.4 1.3-3 2.3-4.7 2.9-1.7.7-3.7 1-5.9 1-4.9 0-8.7-1.6-11.4-4.8-2.7-3.2-4.1-6.8-4.1-10.8 0-3.8 1.2-7.1 3.5-10.1 2.9-3.8 6.9-5.6 11.8-5.6 5.1 0 9.1 1.9 12.2 5.8 2.2 2.7 3.3 6.1 3.3 10.2h-26.8c.1 3.5 1.2 6.3 3.3 8.5 2.1 2.2 4.8 3.3 7.9 3.3 1.5 0 3-.3 4.4-.8 1.4-.5 2.7-1.2 3.7-2.1 1.1-.8 2.1-2.2 3.3-4.2zm0-8c-.5-2-1.3-3.7-2.2-4.9-1-1.2-2.3-2.2-3.9-3-1.6-.7-3.3-1.1-5.1-1.1-2.9 0-5.4.9-7.5 2.8-1.5 1.4-2.7 3.4-3.5 6.2h22.2zm14.3-11.9h3.8v5.3c1.5-2 3.2-3.6 5.1-4.6 1.9-1 3.9-1.5 6.1-1.5 2.2 0 4.2.6 5.9 1.7 1.7 1.1 3 2.7 3.8 4.6.8 1.9 1.2 4.9 1.2 9v15.3h-3.8V461c0-3.4-.1-5.7-.4-6.9-.4-2-1.3-3.5-2.5-4.5-1.3-1-2.9-1.5-4.9-1.5-2.3 0-4.4.8-6.2 2.3-1.8 1.5-3 3.4-3.6 5.7-.4 1.5-.5 4.2-.5 8.1v10.9H198v-29.7zm40.5-11.1h3.8v11.1h6.1v3.3h-6.1v26.5h-3.8v-26.5h-5.2v-3.3h5.2v-11.1zm43.5 31l3.2 1.7c-1.1 2.1-2.3 3.7-3.7 5-1.4 1.3-2.9 2.2-4.7 2.9-1.7.7-3.7 1-5.9 1-4.8 0-8.6-1.6-11.4-4.8-2.7-3.2-4.1-6.8-4.1-10.8 0-3.8 1.2-7.1 3.5-10.1 2.9-3.7 6.9-5.6 11.8-5.6 5.1 0 9.1 1.9 12.1 5.8 2.2 2.7 3.2 6.1 3.3 10.2h-26.7c.1 3.4 1.2 6.3 3.3 8.5 2.1 2.2 4.8 3.3 7.9 3.3 1.5 0 3-.3 4.4-.8 1.4-.5 2.6-1.2 3.7-2.1 1-.9 2.1-2.3 3.3-4.2zm0-8c-.5-2-1.3-3.7-2.2-4.9-1-1.2-2.3-2.2-3.9-2.9-1.6-.7-3.3-1.1-5.1-1.1-2.9 0-5.4.9-7.5 2.8-1.5 1.4-2.7 3.4-3.5 6.1h22.2zm12.7-11.9h3.9v4.4c1.2-1.7 2.4-3 3.7-3.8 1.3-.8 2.6-1.3 4.1-1.3 1.1 0 2.2.3 3.4 1l-2 3.2c-.8-.3-1.5-.5-2-.5-1.3 0-2.5.5-3.7 1.6-1.2 1.1-2.1 2.7-2.7 4.9-.5 1.7-.7 5.1-.7 10.3v10.1h-3.9v-29.9z"/><path class="st2" d="M280.6 371l-26.5 26.5v-53.1z"/><path class="st1" d="M302.3 392.8c-7.6 13.3-21.9 22.3-38.3 22.3-24.4 0-44.1-19.7-44.1-44.1s19.7-44.1 44.1-44.1c16.4 0 30.8 9 38.3 22.3l6.5-6.6c-9.4-14.9-26-24.7-44.9-24.7-29.3 0-53.1 23.8-53.1 53.1s23.8 53.1 53.1 53.1c18.9 0 35.5-9.9 44.9-24.7l-6.5-6.6z"/></svg>