<svg xmlns="http://www.w3.org/2000/svg" width="953" height="972"><style>.st0{opacity:0.27;filter:url(#a);} .st1{fill:#FFFFFF;} .st2{opacity:0.2;} .st3{fill:url(#b);} .st4{opacity:7.000000e-002;}</style><filter id="a"><feGaussianBlur stdDeviation="10"/></filter><ellipse cx="476.5" cy="485" rx="445.5" ry="455" class="st0"/><ellipse class="st1" cx="476.5" cy="478" rx="445.5" ry="455"/><path d="M476.5 23C722.5 23 922 226.7 922 478S722.5 933 476.5 933 31 729.4 31 478 230.5 23 476.5 23m0-.5c-60.2 0-118.6 12-173.6 35.8-53.1 22.9-100.8 55.8-141.8 97.6-41 41.8-73.1 90.6-95.6 144.8-23.3 56.2-35 115.8-35 177.3s11.8 121.2 35 177.3c22.5 54.2 54.6 103 95.6 144.8 41 41.8 88.7 74.7 141.8 97.6 55 23.8 113.4 35.8 173.6 35.8s118.6-12 173.6-35.8c53.1-22.9 100.8-55.8 141.8-97.6 41-41.8 73.1-90.6 95.6-144.8 23.3-56.2 35-115.8 35-177.3s-11.8-121.2-35-177.3c-22.5-54.2-54.6-103-95.6-144.8-41-41.8-88.7-74.7-141.8-97.6-55-23.8-113.4-35.8-173.6-35.8z" class="st2"/><linearGradient id="b" gradientUnits="userSpaceOnUse" x1="476.5" y1="764.048" x2="476.5" y2="192.048"><stop offset=".14" stop-color="#F44C26"/><stop offset=".83" stop-color="#57AFE3"/></linearGradient><path class="st3" d="M692.8 192h-29.5L476.5 457.1 289.8 192h-29.5l201.5 286-201.5 286h29.5l186.7-265 186.8 265h29.5L491.3 478z"/><path d="M692.8 192h-29.5L476.5 457.1 289.8 192h-29.5l201.5 286-201.5 286h29.5l186.7-265 186.8 265h29.5L491.3 478l201.5-286zm-2 571h-27.1L476.5 497.2 289.2 763h-27.1L463 478 262.2 193h27.1l187.3 265.8L663.8 193h27.1L490 478l200.8 285z" class="st4"/></svg>