<svg xmlns="http://www.w3.org/2000/svg" width="48" height="48" viewBox="0 0 48 48"><circle cx="24" cy="24" r="24" fill="#55ACEE"/><path d="M36.8 17.4v.9C36.8 27 30.2 37 18 37c-3.7 0-7.2-1.1-10.1-3 .5.1 1 .1 1.6.1 3.1 0 5.9-1 8.2-2.8-2.9-.1-5.3-2-6.2-4.6.4.1.8.1 1.2.1.6 0 1.2-.1 1.7-.2-3-.6-5.3-3.3-5.3-6.5V20c.9.5 1.9.8 3 .8-1.8-1.2-2.9-3.2-2.9-5.5 0-1.2.3-2.3.9-3.3 3.2 4 8.1 6.6 13.6 6.9-.1-.5-.2-1-.2-1.5 0-3.6 2.9-6.6 6.6-6.6 1.9 0 3.6.8 4.8 2.1 1.5-.3 2.9-.8 4.2-1.6-.5 1.5-1.5 2.8-2.9 3.6 1.3-.1 2.6-.5 3.8-1-.8 1.4-2 2.6-3.2 3.5z" fill="#FFF"/></svg>